<svg width="765" height="220" viewBox="0 0 765 220" fill="none" xmlns="http://www.w3.org/2000/svg">
<path d="M33.0003 153.149V146.231C37.6721 146.231 40.9065 145.901 42.7034 145.242C43.5419 144.943 44.1708 144.434 44.5901 143.715C45.1891 142.577 45.5185 140.421 45.5784 137.246L45.9378 129.25C45.9977 127.573 46.0276 124.848 46.0276 121.074V109.305C46.0276 103.974 45.8479 97.5053 45.4885 89.8986C45.3089 86.0652 45.0393 83.909 44.6799 83.4298C44.3805 82.8907 43.8714 82.5014 43.1526 82.2618C42.0146 81.8426 38.6305 81.5431 33.0003 81.3634V74.4454C43.9013 72.5887 51.0589 71.2111 54.4729 70.3126C57.887 69.4142 61.7503 67.9767 66.0628 66.0001L68.4885 67.0782V81.5431L84.8401 68.4259C86.7568 67.6473 88.374 67.1381 89.6917 66.8986C91.0693 66.5991 92.8961 66.4493 95.1721 66.4493C102.36 66.4493 107.78 67.6173 111.434 69.9532C115.147 72.2293 118.202 76.0926 120.598 81.5431L136.949 68.4259C138.866 67.6473 140.483 67.1381 141.801 66.8986C143.179 66.5991 145.005 66.4493 147.282 66.4493C153.211 66.4493 157.793 67.198 161.028 68.6954C164.322 70.1329 167.047 72.1095 169.203 74.6251C171.36 77.1407 172.887 79.8361 173.785 82.7111C174.684 85.5861 175.133 90.0184 175.133 96.0079C175.133 102.596 175.073 106.969 174.953 109.125C174.893 109.844 174.864 110.712 174.864 111.731V121.074C174.864 130.658 175.013 136.797 175.313 139.492C175.672 142.128 176.241 143.805 177.02 144.524C177.858 145.182 179.655 145.602 182.41 145.781C183.369 145.841 185.046 145.991 187.442 146.231V153.149C179.236 152.669 172.468 152.43 167.137 152.43C161.087 152.43 155.936 152.669 151.684 153.149L150.426 151.442L151.504 135.18C151.744 128.591 151.864 122.931 151.864 118.199V111.371C151.864 100.71 151.384 94.0014 150.426 91.2462C149.468 88.4311 147.851 86.2449 145.574 84.6876C143.358 83.0704 140.543 82.2618 137.129 82.2618C133.296 82.2618 130.032 83.2501 127.336 85.2267C124.641 87.1434 122.964 88.9103 122.305 90.5275C121.706 92.0848 121.436 95.2592 121.496 100.051V121.793L121.676 130.777L121.856 138.055C121.916 140.271 122.125 141.798 122.485 142.637C122.844 143.475 123.353 144.104 124.012 144.524C124.551 144.823 125.689 145.093 127.426 145.332C130.84 145.751 133.296 146.051 134.793 146.231V153.149C129.463 152.909 121.796 152.789 111.793 152.789C100.653 152.789 92.4169 152.909 87.0862 153.149V146.231C88.2242 146.051 89.6917 145.871 91.4885 145.692C94.124 145.512 95.7711 145.212 96.4299 144.793C97.1487 144.314 97.7177 143.415 98.137 142.098C98.5563 140.72 98.7659 137.576 98.7659 132.664L98.9456 116.762V104.004C98.9456 97.8947 98.5563 93.5822 97.7776 91.0665C97.0589 88.491 95.5315 86.3647 93.1956 84.6876C90.9195 82.9506 87.9547 82.0822 84.301 82.0822C80.288 82.0822 76.9039 83.1004 74.1487 85.1368C71.3935 87.1733 69.6565 89.2098 68.9378 91.2462C68.5784 92.3842 68.4286 97.0861 68.4885 105.352V121.074C68.4885 129.16 68.6682 135.359 69.0276 139.672C69.1474 141.948 69.4469 143.386 69.926 143.984C70.4052 144.583 71.2138 145.033 72.3518 145.332C73.1904 145.572 75.9755 145.871 80.7073 146.231V153.149C74.2385 152.909 66.4521 152.789 57.3479 152.789C47.1057 152.789 38.9898 152.909 33.0003 153.149Z" fill="white"/>
<path d="M208 161.5C208 165.09 205.09 168 201.5 168C197.91 168 195 165.09 195 161.5C195 157.91 197.91 155 201.5 155C205.09 155 208 157.91 208 161.5Z" fill="#00C8FF"/>
<path d="M198.469 171.946C199.373 172.58 199.595 173.829 198.945 174.722C182.729 197.007 158.718 212.415 131.648 217.849C103.925 223.414 75.1227 218.089 51.2215 202.979C27.3203 187.869 10.1557 164.135 3.29099 136.705C-3.57371 109.274 0.388754 80.253 14.3558 55.6665C28.3229 31.08 51.2217 12.8165 78.2987 4.66727C105.376 -3.48198 134.551 -0.890983 159.768 11.9024C184.985 24.6958 204.307 46.7088 213.723 73.3719C222.916 99.4055 221.976 127.92 211.137 153.26C210.703 154.275 209.517 154.725 208.509 154.272L202.124 151.402C201.117 150.95 200.669 149.766 201.102 148.75C210.783 125.99 211.602 100.402 203.351 77.0347C194.876 53.0379 177.487 33.2262 154.791 21.7122C132.096 10.1981 105.838 7.86623 81.4688 15.2006C57.0995 22.5349 36.4906 38.972 23.9203 61.0999C11.3499 83.2277 7.78369 109.346 13.9619 134.034C20.1402 158.722 35.5883 180.082 57.0994 193.681C78.6105 207.28 104.532 212.072 129.484 207.064C153.781 202.187 175.34 188.381 189.932 168.411C190.584 167.519 191.83 167.298 192.735 167.931L198.469 171.946Z" fill="white"/>
<path d="M262 164.27V155.998C267.586 155.998 271.453 155.604 273.602 154.817C274.604 154.458 275.356 153.85 275.858 152.99C276.574 151.63 276.968 149.052 277.039 145.256L277.469 135.695C277.541 133.69 277.576 130.432 277.576 125.92V111.848C277.576 105.474 277.362 97.7397 276.932 88.6447C276.717 84.0613 276.395 81.4832 275.965 80.9103C275.607 80.2657 274.998 79.8003 274.139 79.5138C272.778 79.0125 268.732 78.6544 262 78.4396V70.1681C275.034 67.948 283.592 66.3009 287.674 65.2267C291.756 64.1525 296.375 62.4337 301.532 60.0704L304.432 61.3595V78.6544L323.983 62.9708C326.274 62.0398 328.208 61.4311 329.783 61.1447C331.431 60.7866 333.615 60.6075 336.336 60.6075C344.93 60.6075 351.411 62.004 355.78 64.797C360.22 67.5184 363.872 72.1375 366.737 78.6544L386.287 62.9708C388.579 62.0398 390.513 61.4311 392.088 61.1447C393.735 60.7866 395.92 60.6075 398.641 60.6075C405.731 60.6075 411.209 61.5027 415.076 63.2931C419.015 65.0118 422.274 67.3751 424.852 70.3829C427.43 73.3907 429.256 76.6134 430.33 80.0509C431.405 83.4884 431.942 88.7879 431.942 95.9493C431.942 103.827 431.87 109.055 431.727 111.633C431.655 112.492 431.619 113.531 431.619 114.748V125.92C431.619 137.378 431.798 144.719 432.157 147.942C432.586 151.093 433.267 153.098 434.198 153.957C435.2 154.745 437.349 155.246 440.643 155.461C441.789 155.533 443.794 155.712 446.658 155.998V164.27C436.847 163.697 428.755 163.41 422.381 163.41C415.148 163.41 408.989 163.697 403.905 164.27L402.401 162.229L403.69 142.785C403.976 134.908 404.119 128.14 404.119 122.483V114.318C404.119 101.571 403.546 93.5503 402.401 90.256C401.255 86.8901 399.321 84.2762 396.6 82.4142C393.95 80.4806 390.584 79.5138 386.502 79.5138C381.919 79.5138 378.016 80.6954 374.793 83.0587C371.571 85.3504 369.565 87.463 368.778 89.3966C368.061 91.2586 367.739 95.0542 367.811 100.783V126.779L368.026 137.522L368.24 146.223C368.312 148.873 368.563 150.699 368.992 151.701C369.422 152.704 370.031 153.456 370.819 153.957C371.463 154.315 372.824 154.637 374.901 154.924C378.983 155.425 381.919 155.783 383.709 155.998V164.27C377.336 163.983 368.169 163.84 356.209 163.84C342.889 163.84 333.042 163.983 326.668 164.27V155.998C328.029 155.783 329.783 155.568 331.932 155.354C335.083 155.139 337.052 154.781 337.84 154.279C338.699 153.706 339.38 152.632 339.881 151.057C340.382 149.41 340.633 145.65 340.633 139.777L340.848 120.764V105.51C340.848 98.2052 340.382 93.049 339.451 90.0411C338.592 86.9617 336.766 84.4194 333.973 82.4142C331.252 80.3374 327.707 79.299 323.338 79.299C318.54 79.299 314.494 80.5164 311.199 82.9513C307.905 85.3862 305.828 87.8211 304.969 90.256C304.539 91.6167 304.36 97.2384 304.432 107.121V125.92C304.432 135.588 304.647 143 305.076 148.156C305.22 150.878 305.578 152.596 306.151 153.313C306.724 154.029 307.69 154.566 309.051 154.924C310.054 155.21 313.384 155.568 319.041 155.998V164.27C311.307 163.983 301.997 163.84 291.112 163.84C278.865 163.84 269.162 163.983 262 164.27Z" fill="white"/>
<path d="M556.014 156.213V164.27C547.778 163.912 540.474 163.733 534.1 163.733C528.084 163.733 522.248 163.912 516.59 164.27L515.623 163.088L516.59 149.016C514.012 150.663 506.421 156.32 493.817 165.988C490.594 166.705 487.515 167.063 484.578 167.063C476.772 167.063 470.649 164.771 466.209 160.188C461.841 155.604 459.657 149.016 459.657 140.422C459.657 134.621 460.623 129.859 462.557 126.135C464.562 122.411 466.675 119.69 468.895 117.971C471.186 116.18 474.696 114.462 479.422 112.815C490.737 108.804 503.127 105.653 516.59 103.361C516.733 94.8393 514.979 88.3582 511.326 83.9181C507.602 79.478 501.945 77.2579 494.354 77.2579C491.274 77.2579 488.338 77.6518 485.545 78.4396C484.328 78.7976 482.895 79.5138 481.248 80.588L476.737 91.4376L469.432 89.8263L470.076 75.9689C475.376 72.3881 480.425 69.2729 485.223 66.6232C490.021 63.9734 493.387 62.3621 495.321 61.7892C497.97 61.0014 501.694 60.6075 506.492 60.6075C514.298 60.6075 520.708 61.7534 525.721 64.045C530.806 66.2651 534.53 68.9148 536.893 71.9943C539.328 75.0737 540.975 78.368 541.834 81.8771C542.765 85.3862 543.231 89.8263 543.231 95.1974C543.231 97.4891 543.052 103.469 542.694 113.137C542.479 119.582 542.371 124.846 542.371 128.928C542.371 141.675 542.729 149.41 543.446 152.131C543.732 153.42 544.305 154.279 545.164 154.709C546.31 155.282 549.927 155.783 556.014 156.213ZM516.59 112.385C510.503 113.674 504.917 115.249 499.832 117.111C494.819 118.902 491.346 121.158 489.412 123.879C487.479 126.529 486.512 129.895 486.512 133.977C486.512 138.56 487.658 142.105 489.949 144.611C492.313 147.118 495.392 148.371 499.188 148.371C502.41 148.371 505.633 147.44 508.856 145.578C512.15 143.716 514.728 141.353 516.59 138.488V112.385Z" fill="white"/>
<path d="M627.879 155.676V164.27C618.927 163.697 609.582 163.41 599.842 163.41C590.102 163.41 579.145 163.697 566.971 164.27V155.783C573.774 155.568 577.892 155.282 579.324 154.924C580.399 154.637 581.186 154.244 581.688 153.742C582.261 153.169 582.655 152.31 582.869 151.164C583.371 149.016 583.729 142.248 583.944 130.861C584.158 119.475 584.266 109.377 584.266 100.568V65.1193C584.266 53.8758 584.015 43.5991 583.514 34.2892C583.227 29.2762 582.869 26.3042 582.44 25.3732C582.153 24.8719 581.759 24.478 581.258 24.1915C580.399 23.6186 579.038 23.1889 577.176 22.9025C576.102 22.7592 572.879 22.5802 567.508 22.3654V14.4161C576.388 13.4851 583.478 12.4825 588.778 11.4083C594.077 10.2625 601.203 8.29309 610.155 5.50012L612.41 6.78918L611.551 28.4884C611.193 40.6629 610.978 55.5945 610.907 73.2833V100.783C610.907 111.167 610.978 118.938 611.121 124.094C611.408 136.913 611.623 144.683 611.766 147.404C611.909 150.054 612.16 151.737 612.518 152.453C612.733 152.955 613.091 153.384 613.592 153.742C614.237 154.244 615.347 154.637 616.922 154.924C617.567 155.067 621.219 155.318 627.879 155.676Z" fill="white"/>
<path d="M640.018 78.1173V69.9532C646.177 69.5952 652.371 68.7716 658.602 67.4825C664.832 66.1935 672.817 63.9018 682.557 60.6075L684.061 61.7892C683.058 75.9689 682.557 89.0743 682.557 101.106V113.137C682.557 123.378 682.808 130.217 683.309 133.654C684.025 138.166 685.744 141.568 688.465 143.859C691.186 146.151 694.803 147.297 699.315 147.297C704.471 147.297 708.804 145.972 712.313 143.322C715.822 140.601 718.257 137.808 719.617 134.943C720.477 133.082 720.907 129.214 720.907 123.342V104.973L720.692 89.7189C720.692 84.7775 720.369 81.8055 719.725 80.8029C719.367 80.1583 718.651 79.657 717.576 79.299C716.502 78.9409 712.134 78.547 704.471 78.1173V69.9532C715.571 68.521 723.127 67.3751 727.137 66.5157C731.147 65.6564 737.951 63.687 747.547 60.6075L749.588 61.7892L748.407 81.5548C747.834 95.5913 747.547 103.433 747.547 105.08V127.102C747.547 140.207 747.869 148.3 748.514 151.379C748.8 152.668 749.338 153.563 750.125 154.065C751.486 154.781 755.89 155.318 763.338 155.676V164.27L741.209 163.733L720.907 164.27L720.155 163.41L720.799 155.139C720.871 153.778 720.907 151.021 720.907 146.867C718.114 149.087 715.679 151.128 713.602 152.99L701.463 164.484C696.522 166.275 691.545 167.17 686.532 167.17C676.864 167.17 669.272 164.52 663.758 159.221C658.244 153.921 655.487 146.867 655.487 138.059C655.487 136.984 655.594 133.01 655.809 126.135C655.88 122.483 655.916 117.756 655.916 111.955L655.701 89.2892C655.701 85.1355 655.415 82.5574 654.842 81.5548C654.341 80.5522 653.481 79.8003 652.264 79.299C651.046 78.7976 646.964 78.4038 640.018 78.1173Z" fill="white"/>
<path d="M286.148 213.77H266.996V179.498H286.148V183.29H271.316V193.994H285.284V197.738H271.316V209.978H286.148V213.77Z" fill="white"/>
<path d="M360.196 213.77H355.156L336.82 185.306H336.628C336.66 185.882 336.692 186.522 336.724 187.226C336.788 187.93 336.836 188.698 336.868 189.53C336.9 190.33 336.932 191.162 336.964 192.026C336.996 192.89 337.012 193.754 337.012 194.618V213.77H333.028V179.498H338.02L356.308 207.866H356.5C356.468 207.482 356.436 206.954 356.404 206.282C356.372 205.578 356.34 204.81 356.308 203.978C356.276 203.114 356.244 202.234 356.212 201.338C356.18 200.442 356.164 199.61 356.164 198.842V179.498H360.196V213.77Z" fill="white"/>
<path d="M432.137 213.77H427.241L418.169 198.89L408.953 213.77H404.393L415.769 195.914L405.113 179.498H409.913L418.313 192.938L426.761 179.498H431.321L420.713 195.818L432.137 213.77Z" fill="white"/>
<path d="M505.308 196.586C505.308 199.242 504.972 201.658 504.3 203.834C503.628 205.978 502.62 207.834 501.276 209.402C499.964 210.97 498.316 212.17 496.332 213.002C494.38 213.834 492.108 214.25 489.516 214.25C486.828 214.25 484.492 213.834 482.508 213.002C480.524 212.138 478.876 210.938 477.564 209.402C476.252 207.834 475.276 205.962 474.636 203.786C473.996 201.61 473.676 199.194 473.676 196.538C473.676 193.018 474.252 189.946 475.404 187.322C476.556 184.698 478.3 182.65 480.636 181.178C483.004 179.706 485.98 178.97 489.564 178.97C492.988 178.97 495.868 179.706 498.204 181.178C500.54 182.618 502.3 184.666 503.484 187.322C504.7 189.946 505.308 193.034 505.308 196.586ZM478.236 196.586C478.236 199.466 478.636 201.946 479.436 204.026C480.236 206.106 481.468 207.706 483.132 208.826C484.828 209.946 486.956 210.506 489.516 210.506C492.108 210.506 494.22 209.946 495.852 208.826C497.516 207.706 498.748 206.106 499.548 204.026C500.348 201.946 500.748 199.466 500.748 196.586C500.748 192.266 499.852 188.89 498.06 186.458C496.268 183.994 493.436 182.762 489.564 182.762C486.972 182.762 484.828 183.322 483.132 184.442C481.468 185.53 480.236 187.114 479.436 189.194C478.636 191.242 478.236 193.706 478.236 196.586Z" fill="white"/>
<path d="M575.939 179.498L563.699 213.77H559.38L547.139 179.498H551.651L559.38 201.482C559.731 202.41 560.035 203.306 560.291 204.17C560.548 205.034 560.771 205.866 560.963 206.666C561.187 207.434 561.379 208.202 561.539 208.97C561.699 208.202 561.876 207.418 562.067 206.618C562.291 205.818 562.531 204.986 562.787 204.122C563.075 203.258 563.379 202.346 563.699 201.386L571.379 179.498H575.939Z" fill="white"/>
<path d="M639.519 213.77L635.391 203.162H621.807L617.727 213.77H613.359L626.751 179.354H630.639L643.983 213.77H639.519ZM630.255 188.954C630.159 188.698 629.999 188.234 629.775 187.562C629.551 186.89 629.327 186.202 629.103 185.498C628.911 184.762 628.751 184.202 628.623 183.818C628.463 184.458 628.287 185.114 628.095 185.786C627.935 186.426 627.759 187.018 627.567 187.562C627.407 188.106 627.263 188.57 627.135 188.954L623.247 199.322H634.095L630.255 188.954Z" fill="white"/>
<path d="M697.679 213.77H685.295V211.274L689.327 210.362V182.954L685.295 181.994V179.498H697.679V181.994L693.647 182.954V210.362L697.679 211.274V213.77Z" fill="white"/>
<path d="M763.097 204.602C763.097 206.65 762.601 208.394 761.609 209.834C760.617 211.242 759.193 212.33 757.337 213.098C755.513 213.866 753.353 214.25 750.857 214.25C749.577 214.25 748.345 214.186 747.161 214.058C746.009 213.93 744.953 213.754 743.993 213.53C743.033 213.274 742.185 212.97 741.449 212.618V208.49C742.601 209.002 744.025 209.466 745.721 209.882C747.449 210.298 749.225 210.506 751.049 210.506C752.745 210.506 754.169 210.282 755.321 209.834C756.473 209.386 757.337 208.746 757.913 207.914C758.489 207.082 758.777 206.106 758.777 204.986C758.777 203.866 758.537 202.922 758.057 202.154C757.577 201.386 756.745 200.682 755.561 200.042C754.409 199.37 752.793 198.666 750.713 197.93C749.241 197.386 747.945 196.81 746.825 196.202C745.737 195.562 744.825 194.842 744.089 194.042C743.353 193.242 742.793 192.33 742.409 191.306C742.057 190.282 741.881 189.098 741.881 187.754C741.881 185.93 742.345 184.378 743.273 183.098C744.201 181.786 745.481 180.778 747.113 180.074C748.777 179.37 750.681 179.018 752.825 179.018C754.713 179.018 756.441 179.194 758.009 179.546C759.577 179.898 761.001 180.362 762.281 180.938L760.937 184.634C759.753 184.122 758.457 183.69 757.049 183.338C755.673 182.986 754.233 182.81 752.729 182.81C751.289 182.81 750.089 183.018 749.129 183.434C748.169 183.85 747.449 184.442 746.969 185.21C746.489 185.946 746.249 186.81 746.249 187.802C746.249 188.954 746.489 189.914 746.969 190.682C747.449 191.45 748.233 192.138 749.321 192.746C750.409 193.354 751.881 194.01 753.737 194.714C755.753 195.45 757.449 196.25 758.825 197.114C760.233 197.946 761.289 198.954 761.993 200.138C762.729 201.322 763.097 202.81 763.097 204.602Z" fill="white"/>
</svg>
