<svg width="220" height="220" viewBox="0 0 220 220" fill="none" xmlns="http://www.w3.org/2000/svg">
<path d="M33.0003 153.149V146.231C37.6721 146.231 40.9065 145.901 42.7034 145.242C43.5419 144.943 44.1708 144.434 44.5901 143.715C45.1891 142.577 45.5185 140.421 45.5784 137.246L45.9378 129.25C45.9977 127.573 46.0276 124.848 46.0276 121.074V109.305C46.0276 103.974 45.8479 97.5053 45.4885 89.8986C45.3089 86.0652 45.0393 83.909 44.6799 83.4298C44.3805 82.8907 43.8714 82.5014 43.1526 82.2618C42.0146 81.8426 38.6305 81.5431 33.0003 81.3634V74.4454C43.9013 72.5887 51.0589 71.2111 54.4729 70.3126C57.887 69.4142 61.7503 67.9767 66.0628 66.0001L68.4885 67.0782V81.5431L84.8401 68.4259C86.7568 67.6473 88.374 67.1381 89.6917 66.8986C91.0693 66.5991 92.8961 66.4493 95.1721 66.4493C102.36 66.4493 107.78 67.6173 111.434 69.9532C115.147 72.2293 118.202 76.0926 120.598 81.5431L136.949 68.4259C138.866 67.6473 140.483 67.1381 141.801 66.8986C143.179 66.5991 145.005 66.4493 147.282 66.4493C153.211 66.4493 157.793 67.198 161.028 68.6954C164.322 70.1329 167.047 72.1095 169.203 74.6251C171.36 77.1407 172.887 79.8361 173.785 82.7111C174.684 85.5861 175.133 90.0184 175.133 96.0079C175.133 102.596 175.073 106.969 174.953 109.125C174.893 109.844 174.864 110.712 174.864 111.731V121.074C174.864 130.658 175.013 136.797 175.313 139.492C175.672 142.128 176.241 143.805 177.02 144.524C177.858 145.182 179.655 145.602 182.41 145.781C183.369 145.841 185.046 145.991 187.442 146.231V153.149C179.236 152.669 172.468 152.43 167.137 152.43C161.087 152.43 155.936 152.669 151.684 153.149L150.426 151.442L151.504 135.18C151.744 128.591 151.864 122.931 151.864 118.199V111.371C151.864 100.71 151.384 94.0014 150.426 91.2462C149.468 88.4311 147.851 86.2449 145.574 84.6876C143.358 83.0704 140.543 82.2618 137.129 82.2618C133.296 82.2618 130.032 83.2501 127.336 85.2267C124.641 87.1434 122.964 88.9103 122.305 90.5275C121.706 92.0848 121.436 95.2592 121.496 100.051V121.793L121.676 130.777L121.856 138.055C121.916 140.271 122.125 141.798 122.485 142.637C122.844 143.475 123.353 144.104 124.012 144.524C124.551 144.823 125.689 145.093 127.426 145.332C130.84 145.751 133.296 146.051 134.793 146.231V153.149C129.463 152.909 121.796 152.789 111.793 152.789C100.653 152.789 92.4169 152.909 87.0862 153.149V146.231C88.2242 146.051 89.6917 145.871 91.4885 145.692C94.124 145.512 95.7711 145.212 96.4299 144.793C97.1487 144.314 97.7177 143.415 98.137 142.098C98.5563 140.72 98.7659 137.576 98.7659 132.664L98.9456 116.762V104.004C98.9456 97.8947 98.5563 93.5822 97.7776 91.0665C97.0589 88.491 95.5315 86.3647 93.1956 84.6876C90.9195 82.9506 87.9547 82.0822 84.301 82.0822C80.288 82.0822 76.9039 83.1004 74.1487 85.1368C71.3935 87.1733 69.6565 89.2098 68.9378 91.2462C68.5784 92.3842 68.4286 97.0861 68.4885 105.352V121.074C68.4885 129.16 68.6682 135.359 69.0276 139.672C69.1474 141.948 69.4469 143.386 69.926 143.984C70.4052 144.583 71.2138 145.033 72.3518 145.332C73.1904 145.572 75.9755 145.871 80.7073 146.231V153.149C74.2385 152.909 66.4521 152.789 57.3479 152.789C47.1057 152.789 38.9898 152.909 33.0003 153.149Z" fill="white"/>
<path d="M208 161.5C208 165.09 205.09 168 201.5 168C197.91 168 195 165.09 195 161.5C195 157.91 197.91 155 201.5 155C205.09 155 208 157.91 208 161.5Z" fill="#00C8FF"/>
<path d="M198.469 171.946C199.373 172.58 199.595 173.829 198.945 174.722C182.729 197.007 158.718 212.415 131.648 217.849C103.925 223.414 75.1227 218.089 51.2215 202.979C27.3203 187.869 10.1557 164.135 3.29099 136.705C-3.57371 109.274 0.388754 80.253 14.3558 55.6665C28.3229 31.08 51.2217 12.8165 78.2987 4.66727C105.376 -3.48198 134.551 -0.890983 159.768 11.9024C184.985 24.6958 204.307 46.7088 213.723 73.3719C222.916 99.4055 221.976 127.92 211.137 153.26C210.703 154.275 209.517 154.725 208.509 154.272L202.124 151.402C201.117 150.95 200.669 149.766 201.102 148.75C210.783 125.99 211.602 100.402 203.351 77.0347C194.876 53.0379 177.487 33.2262 154.791 21.7122C132.096 10.1981 105.838 7.86623 81.4688 15.2006C57.0995 22.5349 36.4906 38.972 23.9203 61.0999C11.3499 83.2277 7.78369 109.346 13.9619 134.034C20.1402 158.722 35.5883 180.082 57.0994 193.681C78.6105 207.28 104.532 212.072 129.484 207.064C153.781 202.187 175.34 188.381 189.932 168.411C190.584 167.519 191.83 167.298 192.735 167.931L198.469 171.946Z" fill="white"/>
</svg>
