<svg xmlns="http://www.w3.org/2000/svg" version="1.1" xmlns:xlink="http://www.w3.org/1999/xlink" width="192" height="192"><svg xmlns="http://www.w3.org/2000/svg" version="1.1" xmlns:xlink="http://www.w3.org/1999/xlink" width="192" height="192"><svg width="192" height="192" viewBox="0 0 192 192" fill="none" xmlns="http://www.w3.org/2000/svg">
<path d="M36.837 124.985L37.0503 119.798C40.5532 119.942 42.9883 119.795 44.3559 119.356C44.9938 119.157 45.4811 118.795 45.8176 118.269C46.3017 117.434 46.6152 115.828 46.758 113.45L47.274 107.465C47.3706 106.21 47.4771 104.167 47.5934 101.338L47.9563 92.5138C48.1206 88.517 48.1854 83.6615 48.1504 77.9471C48.1339 75.0674 47.9983 73.4424 47.7436 73.0721C47.5357 72.6587 47.166 72.3511 46.6345 72.1493C45.7942 71.7999 43.2661 71.471 39.0503 71.1627L39.2636 65.9758C47.4941 64.9198 52.903 64.1076 55.4905 63.5392C58.0779 62.9708 61.0188 62.0122 64.3131 60.6632L66.0987 61.5463L65.6527 72.3916L78.317 63.0609C79.778 62.5362 81.0062 62.2043 82.0016 62.0653C83.0437 61.8832 84.418 61.8273 86.1245 61.8975C91.5134 62.1191 95.5416 63.1619 98.209 65.026C100.923 66.847 103.094 69.8377 104.723 73.9982L117.387 64.6675C118.848 64.1428 120.076 63.8109 121.071 63.6719C122.114 63.4899 123.488 63.4339 125.194 63.5041C129.64 63.6869 133.053 64.3895 135.431 65.612C137.857 66.7913 139.839 68.3573 141.379 70.3099C142.918 72.2625 143.98 74.3305 144.565 76.5137C145.15 78.697 145.35 82.0341 145.165 86.5248C144.962 91.4647 144.782 94.7411 144.626 96.3541C144.559 96.8912 144.51 97.5414 144.478 98.3048L144.19 105.31C143.895 112.496 143.818 117.103 143.959 119.133C144.147 121.121 144.522 122.395 145.084 122.958C145.692 123.478 147.027 123.848 149.087 124.068C149.804 124.142 151.056 124.306 152.845 124.56L152.632 129.746C146.494 129.134 141.427 128.746 137.43 128.582C132.895 128.395 129.025 128.416 125.822 128.644L124.932 127.325L126.241 115.166C126.624 110.234 126.888 105.993 127.034 102.446L127.245 97.3263C127.573 89.3327 127.421 84.2882 126.787 82.1929C126.156 80.0527 125.011 78.3637 123.352 77.1259C121.74 75.8451 119.655 75.152 117.095 75.0468C114.221 74.9286 111.743 75.5689 109.661 76.9678C107.581 78.3217 106.269 79.5948 105.725 80.787C105.228 81.9361 104.928 84.3079 104.826 87.9024L104.155 104.204L104.013 110.946L103.923 116.408C103.9 118.071 104.01 119.223 104.253 119.862C104.497 120.502 104.859 120.989 105.34 121.324C105.735 121.565 106.58 121.802 107.875 122.036C110.422 122.455 112.254 122.755 113.371 122.936L113.158 128.123C109.169 127.779 103.424 127.453 95.9244 127.145C87.5716 126.801 81.393 126.637 77.3889 126.652L77.6021 121.465C78.4609 121.366 79.5667 121.276 80.9195 121.197C82.901 121.144 84.1452 120.97 84.6521 120.676C85.2058 120.339 85.6601 119.683 86.0151 118.708C86.3719 117.688 86.626 115.336 86.7775 111.654L87.4025 99.7364L87.7958 90.171C87.9842 85.5904 87.8252 82.3451 87.319 80.4349C86.8595 78.4817 85.7799 76.8404 84.0802 75.511C82.4273 74.1385 80.2311 73.3959 77.4917 73.2833C74.4829 73.1595 71.9142 73.8186 69.7857 75.2605C67.6571 76.7025 66.292 78.1758 65.6903 79.6805C65.3858 80.5226 65.1286 84.0433 64.9186 90.2424L64.4339 102.031C64.1846 108.093 64.1282 112.747 64.2646 115.991C64.2843 117.701 64.4645 118.788 64.8053 119.252C65.1461 119.716 65.7385 120.078 66.5825 120.338C67.2038 120.543 69.2828 120.853 72.8195 121.269L72.6062 126.456C67.7635 126.077 61.9292 125.747 55.1032 125.466C47.4239 125.15 41.3352 124.99 36.837 124.985Z" fill="#A4A4A4"></path>
<path d="M164.999 154.481C165.182 154.637 165.204 154.913 165.048 155.096C150.194 172.41 129.449 183.612 106.814 186.53C84.0338 189.466 60.9778 183.801 42.153 170.642C23.3282 157.483 10.0879 137.776 5.02079 115.373C-0.0463697 92.971 3.42386 69.4842 14.753 49.5046C26.0822 29.5249 44.4558 14.4888 66.2818 7.33592C88.1078 0.183008 111.817 1.42753 132.774 10.8262C153.731 20.2248 170.43 37.1018 179.605 58.1578C188.722 79.0803 189.759 102.634 182.527 124.27C182.451 124.498 182.203 124.621 181.974 124.543L169.695 120.374C169.467 120.296 169.345 120.048 169.421 119.82C175.546 101.447 174.657 81.4508 166.917 63.6867C159.118 45.7891 144.924 31.4437 127.111 23.4548C109.297 15.466 89.1442 14.4081 70.5921 20.4881C52.04 26.5681 36.4224 39.3487 26.7926 56.3314C17.1628 73.3142 14.2131 93.2779 18.5202 112.32C22.8273 131.362 34.0815 148.113 50.0826 159.298C66.0837 170.483 85.6813 175.299 105.044 172.803C124.262 170.325 141.878 160.822 154.5 146.134C154.657 145.951 154.933 145.928 155.117 146.084L164.999 154.481Z" fill="#A4A4A4"></path>
<path d="M179.867 136.984C179.606 143.349 174.234 148.296 167.87 148.035C161.505 147.773 156.558 142.401 156.819 136.037C157.081 129.672 162.453 124.725 168.817 124.987C175.182 125.248 180.129 130.62 179.867 136.984Z" fill="#00C8FF"></path>
</svg></svg><style>@media (prefers-color-scheme: light) { :root { filter: none; } }
@media (prefers-color-scheme: dark) { :root { filter: none; } }
</style></svg>